SplineFontDB: 3.0
FontName: nedham
FullName: nedham
FamilyName: nedham
Weight: Regular
Copyright: Copyright (c) 2018 kozet
UComments: "2018-5-1: Created with FontForge (http://fontforge.org)"
Version: 001.000
DefaultBaseFilename: neðam
ItalicAngle: 0
UnderlinePosition: -100
UnderlineWidth: 50
Ascent: 800
Descent: 200
InvalidEm: 0
LayerCount: 2
Layer: 0 0 "Back" 1
Layer: 1 0 "Fore" 0
XUID: [1021 881 2055310830 16695309]
OS2Version: 0
OS2_WeightWidthSlopeOnly: 0
OS2_UseTypoMetrics: 1
CreationTime: 1525203669
ModificationTime: 1525219338
OS2TypoAscent: 0
OS2TypoAOffset: 1
OS2TypoDescent: 0
OS2TypoDOffset: 1
OS2TypoLinegap: 0
OS2WinAscent: 0
OS2WinAOffset: 1
OS2WinDescent: 0
OS2WinDOffset: 1
HheadAscent: 0
HheadAOffset: 1
HheadDescent: 0
HheadDOffset: 1
OS2Vendor: 'PfEd'
Lookup: 4 0 1 "'liga' Standard Ligatures in Latin lookup 0" { "'liga' Standard Ligatures in Latin lookup 0-1"  } ['liga' ('DFLT' <'dflt' > 'latn' <'dflt' > ) 'rlig' ('DFLT' <'dflt' > 'latn' <'dflt' > ) ]
Lookup: 258 0 0 "kk" { "kk-4" [150,15,2] "kk-3" [150,15,2] "kk-2" [150,150,2] "kk-1" [150,15,0] } ['kern' ('DFLT' <'dflt' > 'latn' <'dflt' > ) ]
MarkAttachClasses: 1
DEI: 91125
KernClass2: 2 2 "kk-1"
 1 k
 1 k
 0 {} 0 {} 0 {} -70 {}
Encoding: UnicodeBmp
UnicodeInterp: none
NameList: AGL For New Fonts
DisplaySize: -48
AntiAlias: 1
FitToEm: 0
WinInfo: 8018 38 14
BeginPrivate: 0
EndPrivate
BeginChars: 65536 68

StartChar: one
Encoding: 49 49 0
Width: 257
VWidth: 0
Flags: HW
LayerCount: 2
Fore
SplineSet
141 256 m 6
 137 268 137 267 137 268 c 6
 129 292 l 5
 181 309 218 280 230 242 c 4
 244 199 236 145 219 111 c 4
 178 29 97 23 26 13 c 5
 23 38 l 5
 20 63 l 5
 97 73 148 79 175 133 c 4
 186 154 191 201 182 227 c 4
 176 246 170 252 145 244 c 5
 141 256 l 6
EndSplineSet
Validated: 33
EndChar

StartChar: two
Encoding: 50 50 1
Width: 272
VWidth: 0
Flags: HW
LayerCount: 2
Fore
SplineSet
82 17 m 5
 58 10 l 5
 28 106 8 162 29 261 c 4
 43 328 88 352 143 371 c 4
 180 384 217 381 252 369 c 5
 244 345 l 5
 235 322 l 5
 208 332 185 333 160 324 c 4
 107 305 88 295 78 250 c 4
 59 163 76 125 106 25 c 5
 82 17 l 5
EndSplineSet
Validated: 33
EndChar

StartChar: three
Encoding: 51 51 2
Width: 353
VWidth: 0
Flags: HW
LayerCount: 2
Fore
SplineSet
263 267 m 4
 284 246 309 223 333 193 c 5
 313 178 l 5
 294 162 l 5
 279 181 264 197 248 212 c 5
 227 153 200 103 179 33 c 4
 177 26 170 18 162 16 c 4
 148 12 134 21 131 35 c 4
 112 129 125 179 87 250 c 4
 81 261 75 243 20 255 c 5
 25 280 l 5
 31 304 l 5
 42 302 105 322 131 273 c 4
 156 226 163 185 167 146 c 5
 183 184 197 216 208 251 c 4
 207 252 205 254 204 255 c 4
 179 282 156 312 140 357 c 4
 131 384 152 402 167 407 c 4
 191 415 276 417 274 357 c 4
 273 325 270 296 264 269 c 4
 264 268 263 268 263 267 c 4
221 312 m 5
 223 325 224 340 224 355 c 5
 218 359 204 363 192 362 c 5
 201 341 210 327 221 312 c 5
EndSplineSet
Validated: 33
EndChar

StartChar: four
Encoding: 52 52 3
Width: 216
VWidth: 0
Flags: HW
LayerCount: 2
Fore
SplineSet
70 238 m 5
 130 261 147 255 146 273 c 4
 146 277 138 289 117 296 c 4
 91 304 81 295 81 294 c 4
 75 274 71 256 70 238 c 5
73 186 m 5
 81 135 103 79 110 7 c 5
 85 5 l 5
 60 3 l 5
 53 79 25 137 21 209 c 4
 19 240 22 273 33 309 c 4
 48 356 102 354 132 344 c 4
 160 335 194 313 196 275 c 4
 199 198 94 198 74 185 c 5
 73 186 73 186 73 186 c 5
EndSplineSet
Validated: 33
EndChar

StartChar: five
Encoding: 53 53 4
Width: 318
VWidth: 0
Flags: HW
LayerCount: 2
Fore
SplineSet
26 15 m 1
 20 39 l 1
 54 47 86 60 107 91 c 0
 132 128 129 134 127 202 c 0
 127 216 139 229 153 228 c 0
 164 227 173 220 176 210 c 0
 193 149 191 116 216 71 c 0
 221 62 270 40 298 21 c 1
 284 0 l 1
 270 -21 l 1
 254 -10 193 10 172 47 c 0
 166 58 162 66 158 77 c 1
 156 73 152 68 149 63 c 0
 118 16 69 -1 31 -9 c 1
 26 15 l 1
EndSplineSet
Validated: 33
EndChar

StartChar: six
Encoding: 54 54 5
Width: 241
VWidth: 0
Flags: HW
LayerCount: 2
Fore
SplineSet
85 210 m 1
 71 227 39 256 55 296 c 0
 72 339 121 365 167 348 c 0
 212 332 235 279 212 235 c 0
 190 194 152 185 129 176 c 0
 114 170 102 163 94 152 c 0
 70 119 66 97 77 84 c 0
 108 50 144 67 214 45 c 1
 206 21 l 1
 199 -3 l 1
 153 11 91 -6 40 50 c 0
 -1 95 32 151 54 182 c 0
 63 194 74 203 85 210 c 1
132 231 m 1
 150 238 161 245 168 259 c 0
 175 273 167 296 150 302 c 0
 132 309 110 299 101 278 c 0
 99 274 108 263 132 231 c 1
EndSplineSet
Validated: 33
EndChar

StartChar: seven
Encoding: 55 55 6
Width: 268
VWidth: 0
Flags: HW
LayerCount: 2
Fore
SplineSet
169 329 m 5
 189 314 l 5
 180 301 175 282 151 263 c 4
 139 253 126 246 116 240 c 5
 143 234 174 224 196 191 c 4
 234 135 241 84 248 22 c 5
 223 19 l 5
 198 16 l 5
 191 78 187 117 155 163 c 4
 132 197 99 182 35 210 c 4
 31 212 27 215 24 219 c 4
 16 231 20 248 33 255 c 4
 71 276 92 281 120 303 c 4
 132 312 132 321 149 344 c 5
 169 329 l 5
EndSplineSet
Validated: 33
EndChar

StartChar: eight
Encoding: 56 56 7
Width: 268
VWidth: 0
Flags: HW
LayerCount: 2
Fore
SplineSet
99 329 m 5
 79 314 l 5
 88 301 94 282 118 263 c 4
 130 253 143 246 153 240 c 5
 126 234 94 224 72 191 c 4
 34 135 27 84 20 22 c 5
 45 19 l 5
 70 16 l 5
 77 78 82 117 114 163 c 4
 137 197 169 182 233 210 c 4
 237 212 241 215 244 219 c 4
 252 231 248 248 235 255 c 4
 197 276 176 281 148 303 c 4
 136 312 136 321 119 344 c 5
 99 329 l 5
EndSplineSet
Validated: 41
EndChar

StartChar: uni2084
Encoding: 8324 8324 8
Width: 228
VWidth: 0
Flags: HW
LayerCount: 2
Fore
SplineSet
87 -18 m 1
 63 -22 l 1
 58 2 l 1
 58 1 58 1 58 2 c 1
 46 67 27 107 25 181 c 0
 24 226 1 297 61 340 c 0
 68 345 77 349 86 349 c 0
 124 349 147 307 157 296 c 1
 163 321 130 350 117 413 c 2
 112 437 l 1
 137 442 l 1
 161 448 l 1
 166 423 l 2
 174 384 236 321 192 256 c 0
 179 236 153 235 138 245 c 0
 115 260 98 289 87 297 c 1
 62 276 74 246 75 183 c 0
 77 119 93 83 107 12 c 2
 112 -13 l 1
 87 -18 l 1
EndSplineSet
Validated: 37
EndChar

StartChar: d
Encoding: 100 100 9
Width: 337
VWidth: 0
Flags: HW
HStem: 253 291
VStem: 32 275
LayerCount: 2
Fore
SplineSet
289 526 m 1
 307 509 l 1
 290 491 l 1
 291 492 290 490 290 491 c 1
 86 271 l 1
 69 253 l 1
 51 270 l 1
 32 287 l 1
 49 305 l 1
 253 525 l 1
 270 544 l 1
 289 526 l 1
48 520 m 1
 65 537 l 1
 83 520 l 1
 82 521 83 519 83 520 c 1
 289 318 l 1
 307 300 l 1
 289 282 l 1
 272 265 l 1
 254 282 l 1
 48 484 l 1
 48 483 47 485 48 484 c 1
 30 502 l 1
 48 520 l 1
EndSplineSet
Validated: 5
EndChar

StartChar: s
Encoding: 115 115 10
Width: 391
VWidth: 0
Flags: HW
LayerCount: 2
Fore
SplineSet
196 -1 m 1
 171 -1 l 1
 171 24 l 1
 176 711 l 1
 176 736 l 1
 201 736 l 1
 226 736 l 1
 226 711 l 1
 221 24 l 1
 221 -1 l 1
 196 -1 l 1
50 499 m 1
 30 514 l 1
 45 534 l 1
 44 533 46 534 45 534 c 1
 183 752 l 1
 205 782 l 1
 224 750 l 1
 348 540 l 1
 361 518 l 1
 339 505 l 1
 318 493 l 1
 305 514 l 1
 200 692 l 1
 85 504 l 1
 85 505 84 503 85 504 c 1
 70 484 l 1
 50 499 l 1
EndSplineSet
Validated: 5
EndChar

StartChar: t
Encoding: 116 116 11
Width: 425
VWidth: 0
Flags: HW
LayerCount: 2
Fore
SplineSet
41 574 m 1
 40 599 l 1
 65 599 l 1
 369 601 l 1
 394 601 l 1
 395 576 l 1
 395 551 l 1
 370 551 l 1
 66 549 l 1
 41 549 l 1
 41 574 l 1
228 -1 m 1
 203 -1 l 1
 203 24 l 1
 202 744 l 1
 202 769 l 1
 227 769 l 1
 252 769 l 1
 252 744 l 1
 253 24 l 1
 253 -1 l 1
 228 -1 l 1
EndSplineSet
Validated: 5
EndChar

StartChar: p
Encoding: 112 112 12
Width: 397
VWidth: 0
Flags: HW
LayerCount: 2
Fore
SplineSet
294 756 m 1
 318 750 l 1
 312 726 l 1
 134 24 l 1
 128 -0 l 1
 103 6 l 1
 79 12 l 1
 85 36 l 1
 263 738 l 1
 262 738 263 739 263 738 c 1
 269 762 l 1
 294 756 l 1
30 415 m 1
 30 440 l 1
 55 441 l 1
 341 447 l 1
 366 448 l 1
 366 423 l 1
 367 398 l 1
 342 397 l 1
 56 391 l 1
 31 390 l 1
 30 415 l 1
EndSplineSet
Validated: 5
EndChar

StartChar: m
Encoding: 109 109 13
Width: 583
VWidth: 0
Flags: HW
HStem: 2 50<183.07 553>
VStem: 135 50<52 770.93>
LayerCount: 2
Fore
SplineSet
42 652 m 5
 54 674 l 5
 76 662 l 5
 75 662 75 662 76 662 c 5
 294 542 l 5
 294 543 293 542 294 542 c 5
 316 530 l 5
 304 508 l 5
 292 486 l 5
 270 498 l 5
 269 498 269 498 270 498 c 5
 52 618 l 5
 30 630 l 5
 42 652 l 5
160 771 m 5
 185 771 l 5
 185 746 l 5
 183 52 l 5
 528 52 l 5
 553 52 l 5
 553 27 l 5
 553 2 l 5
 528 2 l 5
 158 2 l 5
 133 2 l 5
 133 27 l 5
 135 746 l 5
 136 746 135 747 135 746 c 5
 135 771 l 5
 160 771 l 5
EndSplineSet
Validated: 5
EndChar

StartChar: n
Encoding: 110 110 14
Width: 401
VWidth: 0
Flags: HW
VStem: 299 50<376.073 527.766>
LayerCount: 2
Fore
SplineSet
106 315 m 1
 89 297 l 1
 71 313 l 1
 52 330 l 1
 69 349 l 1
 162 451 l 1
 67 553 l 1
 50 571 l 1
 69 588 l 1
 87 605 l 1
 104 587 l 1
 196 488 l 1
 305 609 l 1
 348 656 l 1
 349 592 l 1
 351 312 l 1
 351 248 l 1
 307 295 l 1
 196 414 l 1
 106 315 l 1
106 315 m 1
 107 315 107 316 106 315 c 1
230 452 m 1
 300 376 l 1
 299 528 l 1
 230 452 l 1
EndSplineSet
Validated: 5
EndChar

StartChar: rcaron
Encoding: 345 345 15
Width: 375
VWidth: 0
Flags: HW
LayerCount: 2
Fore
SplineSet
31 719 m 1
 30 744 l 1
 55 744 l 1
 311 746 l 1
 336 746 l 1
 337 721 l 1
 337 696 l 1
 312 696 l 1
 56 694 l 1
 31 694 l 1
 31 719 l 1
53 229 m 1
 30 240 l 1
 40 262 l 1
 176 558 l 1
 202 615 l 1
 226 556 l 1
 337 262 l 1
 345 239 l 1
 321 230 l 1
 298 222 l 1
 290 246 l 1
 199 481 l 1
 86 242 l 1
 87 242 86 241 86 242 c 1
 75 219 l 1
 53 229 l 1
EndSplineSet
Validated: 5
EndChar

StartChar: ntilde
Encoding: 241 241 16
Width: 375
VWidth: 0
Flags: HW
LayerCount: 2
Fore
SplineSet
53 229 m 1
 30 240 l 1
 40 262 l 1
 176 558 l 1
 202 615 l 1
 226 556 l 1
 337 262 l 1
 345 239 l 1
 321 230 l 1
 298 222 l 1
 290 246 l 1
 199 481 l 1
 86 242 l 1
 87 242 86 241 86 242 c 1
 75 219 l 1
 53 229 l 1
EndSplineSet
Validated: 5
EndChar

StartChar: eng
Encoding: 331 331 17
Width: 409
VWidth: 0
Flags: HW
LayerCount: 2
Fore
SplineSet
53 328 m 1
 55 353 l 1
 80 351 l 1
 328 328 l 1
 323 750 l 1
 322 775 l 1
 347 775 l 1
 372 775 l 1
 373 750 l 1
 379 300 l 1
 379 272 l 1
 351 275 l 1
 75 301 l 1
 50 303 l 1
 53 328 l 1
62 -3 m 1
 37 -3 l 1
 37 22 l 1
 37 21 36 22 37 22 c 1
 31 462 l 1
 30 491 l 1
 60 487 l 1
 246 457 l 1
 270 453 l 1
 266 428 l 1
 262 403 l 1
 238 407 l 1
 81 433 l 1
 87 22 l 1
 87 -3 l 1
 62 -3 l 1
EndSplineSet
Validated: 5
EndChar

StartChar: b
Encoding: 98 98 18
Width: 512
VWidth: 0
Flags: HW
LayerCount: 2
Fore
SplineSet
246 634 m 1
 270 641 l 1
 277 617 l 1
 347 383 l 1
 354 359 l 1
 330 352 l 1
 306 345 l 1
 299 369 l 1
 229 603 l 1
 222 627 l 1
 246 634 l 1
482 766 m 1
 482 741 l 1
 457 741 l 1
 95 739 l 1
 289 25 l 1
 296 0 l 1
 271 -6 l 1
 247 -13 l 1
 241 11 l 1
 241 12 240 11 241 11 c 1
 39 757 l 1
 30 789 l 1
 63 789 l 1
 457 791 l 1
 482 791 l 1
 482 766 l 1
EndSplineSet
Validated: 5
EndChar

StartChar: tcaron
Encoding: 357 357 19
Width: 505
VWidth: 0
Flags: HW
LayerCount: 2
Fore
SplineSet
30 758 m 1
 31 783 l 1
 56 783 l 1
 55 783 55 783 56 783 c 1
 442 779 l 1
 475 779 l 1
 465 747 l 1
 253 51 l 1
 233 -17 l 1
 206 49 l 1
 92 335 l 1
 83 358 l 1
 106 367 l 1
 129 376 l 1
 139 353 l 1
 226 133 l 1
 408 729 l 1
 55 733 l 1
 30 733 l 1
 30 758 l 1
EndSplineSet
Validated: 5
EndChar

StartChar: c
Encoding: 99 99 20
Width: 391
VWidth: 0
Flags: HW
LayerCount: 2
Fore
SplineSet
195 782 m 5
 220 782 l 5
 220 757 l 5
 215 70 l 5
 215 45 l 5
 190 45 l 5
 165 45 l 5
 165 70 l 5
 170 757 l 5
 170 782 l 5
 195 782 l 5
341 282 m 5
 361 267 l 5
 346 247 l 5
 347 248 345 247 346 247 c 5
 208 29 l 5
 186 -1 l 5
 167 31 l 5
 43 241 l 5
 30 263 l 5
 51 276 l 5
 73 288 l 5
 86 267 l 5
 190 89 l 5
 306 277 l 5
 306 276 307 278 306 277 c 5
 321 297 l 5
 341 282 l 5
EndSplineSet
Validated: 5
EndChar

StartChar: dcaron
Encoding: 271 271 21
Width: 397
VWidth: 0
Flags: HW
LayerCount: 2
Fore
SplineSet
221 395 m 1
 246 395 l 1
 246 370 l 1
 246 50 l 1
 246 25 l 1
 221 25 l 1
 196 25 l 1
 196 50 l 1
 196 370 l 1
 196 395 l 1
 221 395 l 1
55 9 m 1
 30 9 l 1
 30 34 l 1
 30 726 l 1
 30 769 l 1
 67 748 l 1
 345 588 l 1
 367 575 l 1
 355 554 l 1
 342 532 l 1
 320 544 l 1
 80 683 l 1
 80 34 l 1
 80 9 l 1
 55 9 l 1
EndSplineSet
Validated: 1
EndChar

StartChar: k
Encoding: 107 107 22
Width: 467
VWidth: 0
Flags: HW
HStem: -1 21G<167.709 192.876 257.709 282.876>
VStem: 143 50<-0.789062 24.21 743.79 768.789> 233 50<-0.789062 768.789>
LayerCount: 2
Fore
SplineSet
48 312 m 1
 30 330 l 1
 48 348 l 1
 384 688 l 1
 401 705 l 1
 419 688 l 1
 437 670 l 1
 419 652 l 1
 83 312 l 1
 66 295 l 1
 48 312 l 1
168 -1 m 1
 143 -1 l 1
 143 24 l 1
 142 744 l 1
 142 769 l 1
 167 769 l 1
 192 769 l 1
 192 744 l 1
 193 24 l 1
 193 -1 l 1
 168 -1 l 1
258 -1 m 1
 233 -1 l 1
 233 24 l 1
 232 744 l 1
 232 769 l 1
 257 769 l 1
 282 769 l 1
 282 744 l 1
 283 24 l 1
 283 -1 l 1
 258 -1 l 1
EndSplineSet
Validated: 5
EndChar

StartChar: g
Encoding: 103 103 24
Width: 415
VWidth: 0
Flags: HW
LayerCount: 2
Fore
SplineSet
362 775 m 1
 385 766 l 1
 376 743 l 1
 103 66 l 1
 359 61 l 1
 384 60 l 1
 383 35 l 1
 383 10 l 1
 358 11 l 1
 357 11 358 10 358 11 c 1
 66 17 l 1
 30 18 l 1
 43 51 l 1
 329 761 l 1
 339 785 l 1
 362 775 l 1
58 771 m 1
 81 781 l 1
 91 758 l 1
 91 759 90 758 91 758 c 1
 235 430 l 1
 245 407 l 1
 223 397 l 1
 200 387 l 1
 190 410 l 1
 46 738 l 1
 47 738 46 739 46 738 c 1
 36 761 l 1
 58 771 l 1
EndSplineSet
Validated: 5
EndChar

StartChar: period
Encoding: 46 46 25
Width: 318
VWidth: 0
Flags: HW
LayerCount: 2
Fore
SplineSet
31 437 m 1
 30 462 l 1
 55 462 l 1
 252 464 l 5
 277 464 l 5
 278 439 l 5
 278 414 l 5
 253 414 l 5
 56 412 l 1
 31 412 l 1
 31 437 l 1
31 574 m 1
 30 599 l 1
 55 599 l 1
 252 601 l 5
 277 601 l 5
 278 576 l 5
 278 551 l 5
 253 551 l 5
 56 549 l 1
 31 549 l 1
 31 574 l 1
EndSplineSet
Validated: 1
EndChar

StartChar: f
Encoding: 102 102 26
Width: 450
VWidth: 0
Flags: HW
LayerCount: 2
Fore
SplineSet
265 587 m 1
 290 587 l 1
 290 562 l 1
 288 46 l 1
 288 45 288 47 288 46 c 1
 288 21 l 1
 263 21 l 1
 238 21 l 1
 238 46 l 1
 240 562 l 1
 239 562 240 563 240 562 c 1
 240 587 l 1
 265 587 l 1
55 -9 m 1
 30 -9 l 1
 30 16 l 1
 30 442 l 1
 30 463 l 1
 50 467 l 1
 368 525 l 1
 370 774 l 1
 370 799 l 1
 395 799 l 1
 420 799 l 1
 420 774 l 1
 418 504 l 1
 418 483 l 1
 397 479 l 1
 80 421 l 1
 80 16 l 1
 80 -9 l 1
 55 -9 l 1
EndSplineSet
Validated: 5
EndChar

StartChar: thorn
Encoding: 254 254 27
Width: 387
VWidth: 0
Flags: HW
LayerCount: 2
Fore
SplineSet
321 715 m 1
 343 702 l 1
 330 681 l 1
 170 419 l 1
 157 398 l 1
 135 411 l 1
 114 424 l 1
 127 445 l 1
 287 707 l 1
 300 728 l 1
 321 715 l 1
68 768 m 1
 88 783 l 1
 103 762 l 1
 347 418 l 1
 357 404 l 1
 347 390 l 1
 85 20 l 1
 70 -1 l 1
 50 14 l 1
 30 28 l 1
 44 48 l 1
 296 404 l 1
 62 734 l 1
 48 754 l 1
 68 768 l 1
EndSplineSet
Validated: 5
EndChar

StartChar: scaron
Encoding: 353 353 28
Width: 430
VWidth: 0
Flags: HW
LayerCount: 2
Fore
SplineSet
366 1 m 1
 341 1 l 1
 342 26 l 1
 350 758 l 1
 350 783 l 1
 375 783 l 1
 400 783 l 1
 400 758 l 1
 392 26 l 1
 391 1 l 1
 366 1 l 1
40 754 m 1
 49 777 l 1
 72 767 l 1
 292 675 l 1
 308 669 l 1
 308 652 l 1
 304 22 l 1
 304 -3 l 1
 279 -3 l 1
 254 -3 l 1
 254 22 l 1
 258 635 l 1
 53 721 l 1
 30 731 l 1
 40 754 l 1
EndSplineSet
Validated: 1
EndChar

StartChar: h
Encoding: 104 104 29
Width: 434
VWidth: 0
Flags: HW
LayerCount: 2
Fore
SplineSet
201 564 m 1
 221 579 l 1
 236 559 l 1
 394 355 l 1
 404 342 l 1
 396 328 l 1
 222 10 l 1
 210 -12 l 1
 188 0 l 1
 166 12 l 1
 178 34 l 1
 344 338 l 1
 196 529 l 1
 181 548 l 1
 201 564 l 1
246 767 m 1
 265 751 l 1
 249 732 l 1
 94 546 l 1
 244 355 l 1
 259 336 l 1
 240 320 l 1
 220 305 l 1
 205 325 l 1
 43 531 l 1
 30 546 l 1
 43 562 l 1
 211 764 l 1
 227 783 l 1
 246 767 l 1
EndSplineSet
Validated: 1
EndChar

StartChar: o
Encoding: 111 111 30
Width: 297
VWidth: 0
Flags: HW
LayerCount: 2
Fore
SplineSet
85.8984375 382.166992188 m 5
 82.3291015625 396.833984375 79.9794921875 414.225585938 80.5 431.227539062 c 4
 80.677734375 436.1953125 81.4453125 441.484375 82.7275390625 446.5625 c 4
 92.3935546875 484.826171875 127.94140625 510.569335938 158.306640625 502.83984375 c 4
 202.329101562 491.478515625 220.360351562 446.331054688 216.551757812 384.43359375 c 4
 215.6796875 366.56640625 194.278320312 355.212890625 150.505859375 349.875 c 4
 138.075195312 348.368164062 132.939453125 354.194335938 110.90234375 370.290039062 c 4
 104.298828125 375.114257812 96.4951171875 380.3203125 87.0859375 384.7109375 c 5
 85.8984375 382.166992188 l 5
125.481445312 302.940429688 m 5
 134.793945312 300.053710938 145.483398438 298.900390625 156.522460938 300.23828125 c 4
 194.749023438 304.900390625 263.34765625 317.546875 266.4765625 381.6796875 c 4
 270.666992188 449.779296875 250.665039062 530.643554688 170.760742188 551.263671875 c 4
 104.732421875 568.071289062 48.591796875 515.578125 34.2509765625 458.80859375 c 4
 32.1240234375 450.390625 30.84765625 441.845703125 30.52734375 432.885742188 c 4
 29.1533203125 387.991210938 40.57421875 352.328125 56.5244140625 321.310546875 c 4
 79.580078125 276.474609375 151.663085938 167.842773438 172.451171875 118.608398438 c 5
 195.482421875 128.33203125 l 5
 218.513671875 138.056640625 l 5
 203.08203125 174.60546875 141.977539062 277.170898438 125.481445312 302.940429688 c 5
EndSplineSet
EndChar

StartChar: r
Encoding: 114 114 31
Width: 432
VWidth: 0
Flags: HW
LayerCount: 2
Fore
SplineSet
111 536 m 1
 124 557 l 1
 145 543 l 1
 343 415 l 1
 364 401 l 1
 351 380 l 1
 337 359 l 1
 316 373 l 1
 118 501 l 1
 97 515 l 1
 111 536 l 1
38 752 m 1
 47 776 l 1
 70 768 l 1
 374 660 l 1
 402 650 l 1
 388 624 l 1
 125 149 l 1
 361 53 l 1
 384 44 l 1
 375 21 l 1
 366 -3 l 1
 343 7 l 1
 342 7 343 6 343 7 c 1
 81 113 l 1
 54 123 l 1
 68 148 l 1
 330 622 l 1
 54 720 l 1
 30 729 l 1
 38 752 l 1
EndSplineSet
Validated: 5
EndChar

StartChar: ccaron
Encoding: 269 269 32
Width: 437
VWidth: 0
Flags: HW
LayerCount: 2
Fore
SplineSet
36 764 m 1
 41 788 l 1
 66 782 l 1
 236 742 l 1
 255 738 l 1
 255 718 l 1
 263 48 l 1
 263 49 263 49 263 48 c 1
 263 23 l 1
 238 23 l 1
 213 23 l 1
 213 48 l 1
 213 49 213 47 213 48 c 1
 205 698 l 1
 54 734 l 1
 30 739 l 1
 36 764 l 1
387 282 m 1
 407 267 l 1
 392 247 l 1
 393 248 391 247 392 247 c 1
 254 29 l 1
 232 -1 l 1
 213 31 l 1
 89 241 l 1
 76 263 l 1
 97 276 l 1
 119 288 l 1
 132 267 l 1
 236 89 l 1
 352 277 l 1
 352 276 353 278 352 277 c 1
 367 297 l 1
 387 282 l 1
EndSplineSet
Validated: 5
EndChar

StartChar: uni1E61
Encoding: 7777 7777 33
Width: 532
VWidth: 0
Flags: HW
LayerCount: 2
Fore
SplineSet
188 243 m 1
 176 265 l 1
 197 278 l 1
 455 430 l 1
 477 442 l 1
 489 421 l 1
 502 399 l 1
 480 386 l 1
 222 234 l 1
 201 222 l 1
 188 243 l 1
38 740 m 1
 46 764 l 1
 70 756 l 1
 69 756 69 756 70 756 c 1
 356 656 l 1
 373 650 l 1
 373 632 l 1
 371 24 l 1
 371 -2 l 1
 346 -1 l 1
 321 -1 l 1
 321 24 l 1
 323 614 l 1
 54 708 l 1
 30 717 l 1
 38 740 l 1
EndSplineSet
Validated: 5
EndChar

StartChar: j
Encoding: 106 106 34
Width: 455
VWidth: 0
Flags: HW
LayerCount: 2
Fore
SplineSet
51 50 m 1
 30 63 l 1
 42 85 l 1
 226 403 l 1
 250 444 l 1
 271 400 l 1
 415 86 l 1
 425 64 l 1
 402 53 l 1
 380 43 l 1
 369 66 l 1
 245 336 l 1
 85 59 l 1
 73 38 l 1
 51 50 l 1
51 390 m 1
 30 403 l 1
 42 425 l 1
 226 743 l 1
 250 784 l 1
 271 740 l 1
 415 426 l 1
 425 404 l 1
 402 393 l 1
 380 383 l 1
 369 406 l 1
 245 676 l 1
 85 399 l 1
 73 378 l 1
 51 390 l 1
EndSplineSet
Validated: 1
EndChar

StartChar: w
Encoding: 119 119 35
Width: 466
VWidth: 0
Flags: HW
LayerCount: 2
Fore
SplineSet
416 8 m 1
 397 -7 l 1
 381 12 l 1
 105 360 l 1
 93 375 l 1
 105 391 l 1
 369 747 l 1
 384 767 l 1
 404 752 l 1
 424 737 l 1
 409 717 l 1
 156 377 l 1
 420 44 l 1
 436 24 l 1
 416 8 l 1
49 752 m 1
 69 767 l 1
 84 748 l 1
 360 400 l 1
 372 385 l 1
 361 369 l 1
 97 13 l 1
 98 13 98 14 97 13 c 1
 82 -7 l 1
 62 8 l 1
 42 23 l 1
 57 43 l 1
 309 383 l 1
 45 716 l 1
 30 736 l 1
 49 752 l 1
EndSplineSet
Validated: 5
EndChar

StartChar: l
Encoding: 108 108 36
Width: 526
VWidth: 0
Flags: HW
LayerCount: 2
Fore
SplineSet
105 565 m 1
 108 590 l 1
 133 587 l 1
 471 547 l 1
 496 544 l 1
 493 519 l 1
 490 494 l 1
 465 497 l 1
 127 537 l 1
 102 540 l 1
 105 565 l 1
36 113 m 1
 42 137 l 1
 66 131 l 1
 65 131 66 130 66 131 c 1
 371 61 l 1
 367 754 l 1
 367 779 l 1
 392 779 l 1
 417 779 l 1
 417 754 l 1
 421 29 l 1
 421 -3 l 1
 391 5 l 1
 55 83 l 1
 30 88 l 1
 36 113 l 1
EndSplineSet
Validated: 5
EndChar

StartChar: a
Encoding: 97 97 37
Width: 531
VWidth: 0
Flags: HW
HStem: -180 166
VStem: 87.946 148
LayerCount: 2
Fore
SplineSet
289.932617188 400.857421875 m 4
 291.470703125 358.560546875 325.155273438 325 365.947265625 325 c 4
 413.586914062 325 452.342773438 359.087890625 450.965820312 399.018554688 c 4
 448.420898438 456.711914062 408.641601562 502 356.947265625 502 c 4
 316.692382812 502 288.109375 457.356445312 289.932617188 400.857421875 c 4
239.961914062 399.142578125 m 4
 237.784179688 466.643554688 273.201171875 552 356.947265625 552 c 4
 441.251953125 552 497.473632812 479.288085938 500.927734375 400.981445312 c 4
 503.55078125 324.912109375 434.306640625 275 365.947265625 275 c 4
 296.739257812 275 242.423828125 331.42578125 239.961914062 399.142578125 c 4
79.9326171875 400.857421875 m 0
 81.470703125 358.560546875 115.155273438 325 155.947265625 325 c 0
 203.586914062 325 242.342773438 359.087890625 240.965820312 399.018554688 c 0
 238.420898438 456.711914062 198.641601562 502 146.947265625 502 c 0
 106.692382812 502 78.109375 457.356445312 79.9326171875 400.857421875 c 0
29.9619140625 399.142578125 m 0
 27.7841796875 466.643554688 63.201171875 552 146.947265625 552 c 0
 231.251953125 552 287.473632812 479.288085938 290.927734375 400.981445312 c 0
 293.55078125 324.912109375 224.306640625 275 155.947265625 275 c 0
 86.7392578125 275 32.423828125 331.42578125 29.9619140625 399.142578125 c 0
EndSplineSet
EndChar

StartChar: v
Encoding: 118 118 38
Width: 471
VWidth: 0
Flags: HW
LayerCount: 2
Fore
SplineSet
273 428 m 5
 283 413 296 395 315 375 c 4
 354 333 358 326 410 305 c 6
 433 296 l 5
 423 273 l 5
 414 249 l 5
 391 259 l 6
 335 282 316 300 278 341 c 4
 266 354 256 366 247 377 c 5
 235 352 221 325 198 302 c 4
 184 288 165 280 147 280 c 4
 81 280 30 362 30 426 c 4
 30 461 47 496 70 522 c 4
 96 552 146 582 188 545 c 4
 216 521 231 498 244 477 c 5
 254 492 267 506 282 519 c 4
 333 562 306 540 392 599 c 6
 413 613 l 5
 427 592 l 5
 441 571 l 5
 420 557 l 6
 330 496 365 524 314 481 c 4
 296 466 284 448 273 428 c 5
215 426 m 6
 215 427 214 427 214 428 c 4
 196 459 187 479 155 507 c 4
 146 515 129 514 107 489 c 4
 91 470 80 445 80 426 c 4
 80 379 124 330 147 330 c 4
 152 330 157 332 163 338 c 4
 186 361 198 390 215 425 c 4
 215 426 215 426 215 426 c 6
EndSplineSet
Validated: 33
EndChar

StartChar: eth
Encoding: 240 240 39
Width: 360
VWidth: 0
Flags: HW
LayerCount: 2
Fore
SplineSet
37 735 m 1
 43 760 l 1
 67 754 l 2
 160 733 280 719 319 602 c 0
 355 491 257 424 196 361 c 0
 117 280 62 251 85 182 c 0
 116 87 190 84 307 39 c 2
 330 30 l 1
 321 7 l 1
 312 -16 l 1
 289 -7 l 2
 186 32 79 41 38 166 c 0
 3 273 95 328 160 395 c 0
 233 470 296 515 272 586 c 0
 245 669 159 683 56 706 c 1
 55 706 55 706 56 706 c 1
 32 711 l 1
 37 735 l 1
EndSplineSet
Validated: 37
EndChar

StartChar: z
Encoding: 122 122 40
Width: 565
VWidth: 0
Flags: HW
LayerCount: 2
Fore
SplineSet
81 353 m 2
 77 261 85 192 119 115 c 0
 125 101 137 85 151 72 c 0
 179 46 197 46 204 54 c 0
 306 163 318 198 335 347 c 0
 338 372 341 398 344 425 c 1
 274 407 197 402 139 470 c 0
 72 548 115 696 185 756 c 0
 214 781 255 794 295 774 c 0
 398 723 407 602 401 494 c 1
 433 504 467 515 502 521 c 2
 527 525 l 1
 531 500 l 1
 535 476 l 1
 510 471 l 2
 473 465 435 452 396 440 c 1
 392 405 388 371 385 341 c 0
 368 188 346 133 240 20 c 0
 200 -23 145 8 116 36 c 0
 98 53 83 74 73 95 c 0
 35 180 27 259 31 355 c 1
 32 355 31 356 31 355 c 1
 32 380 l 1
 57 379 l 1
 82 378 l 1
 81 353 l 2
81 353 m 1
 81 354 82 353 81 353 c 1
350 478 m 1
 359 594 347 693 273 730 c 0
 255 739 238 735 218 718 c 0
 163 671 137 549 177 502 c 0
 221 451 276 457 350 478 c 1
EndSplineSet
EndChar

StartChar: zcaron
Encoding: 382 382 41
Width: 545
VWidth: 0
Flags: HW
LayerCount: 2
Fore
SplineSet
208 164 m 1
 163 145 119 121 74 99 c 2
 52 89 l 1
 41 111 l 1
 30 134 l 1
 52 145 l 2
 100 168 149 195 202 216 c 1
 184 423 217 552 224 763 c 2
 225 788 l 1
 250 787 l 1
 275 786 l 1
 274 761 l 2
 267 549 236 424 251 233 c 1
 320 254 395 260 474 229 c 0
 519 212 521 167 508 133 c 0
 484 72 407 1 336 -7 c 0
 238 -18 216 98 208 164 c 1
256 182 m 1
 265 101 286 38 330 43 c 0
 375 48 443 108 461 152 c 0
 470 175 466 179 456 183 c 0
 386 210 321 203 256 182 c 1
EndSplineSet
EndChar

StartChar: backslash
Encoding: 92 92 42
Width: 543
VWidth: 0
Flags: HW
HStem: -180 166
VStem: 150 148
LayerCount: 2
Fore
SplineSet
51 617 m 1
 72 631 l 1
 85 610 l 1
 439 64 l 1
 453 43 l 1
 432 29 l 1
 411 15 l 1
 397 36 l 1
 43 582 l 1
 30 603 l 1
 51 617 l 1
EndSplineSet
EndChar

StartChar: comma
Encoding: 44 44 43
Width: 348
VWidth: 0
Flags: HW
HStem: 638 166
VStem: 101 148
LayerCount: 2
Fore
SplineSet
151 175 m 0
 153 152 166 142 174 143 c 0
 188 144 201 158 199 176 c 0
 197 198 181 211 163 209 c 0
 157 209 149 199 151 175 c 0
101 167 m 0
 97 199 108 257 160 259 c 0
 208 263 243 225 248 183 c 0
 254 141 225 95 178 93 c 0
 130 91 106 133 101 167 c 0
151 510 m 0
 153 487 166 477 174 478 c 0
 188 479 201 493 199 511 c 0
 197 533 181 546 163 544 c 0
 157 544 149 534 151 510 c 0
101 502 m 0
 97 534 108 592 160 594 c 0
 208 598 243 560 248 518 c 0
 254 476 225 430 178 428 c 0
 130 426 106 468 101 502 c 0
EndSplineSet
EndChar

StartChar: semicolon
Encoding: 59 59 44
Width: 348
VWidth: 0
Flags: HW
HStem: 638 166
VStem: 101 148
LayerCount: 2
Fore
SplineSet
175 454 m 1
 200 454 l 1
 200 239 l 1
 175 239 l 1
 150 239 l 1
 150 454 l 1
 175 454 l 1
151 175 m 0
 153 152 166 142 174 143 c 0
 188 144 201 158 199 176 c 0
 197 198 181 211 163 209 c 0
 157 209 149 199 151 175 c 0
101 167 m 0
 97 199 108 257 160 259 c 0
 208 263 243 225 248 183 c 0
 254 141 225 95 178 93 c 0
 130 91 106 133 101 167 c 0
151 510 m 0
 153 487 166 477 174 478 c 0
 188 479 201 493 199 511 c 0
 197 533 181 546 163 544 c 0
 157 544 149 534 151 510 c 0
101 502 m 0
 97 534 108 592 160 594 c 0
 208 598 243 560 248 518 c 0
 254 476 225 430 178 428 c 0
 130 426 106 468 101 502 c 0
EndSplineSet
EndChar

StartChar: hbar
Encoding: 295 295 45
Width: 360
VWidth: 0
Flags: HW
LayerCount: 2
Fore
SplineSet
323 735 m 1
 317 760 l 1
 293 754 l 2
 200 733 80 719 41 602 c 0
 5 491 104 424 165 361 c 0
 244 280 298 251 275 182 c 0
 244 87 171 84 54 39 c 2
 30 30 l 1
 39 7 l 1
 48 -16 l 1
 71 -7 l 2
 174 32 281 41 322 166 c 0
 357 273 265 328 200 395 c 0
 127 470 64 515 88 586 c 0
 115 669 201 683 304 706 c 1
 305 706 305 706 304 706 c 1
 328 711 l 1
 323 735 l 1
EndSplineSet
EndChar

StartChar: scircumflex
Encoding: 349 349 46
Width: 460
VWidth: 0
Flags: HW
LayerCount: 2
Fore
SplineSet
36 326 m 1
 30 350 l 1
 54 356 l 2
 60 358 58 366 84 387 c 0
 100 400 133 465 170 469 c 0
 198 472 204 442 205 434 c 0
 220 266 158 196 203 80 c 0
 212 57 222 50 227 48 c 0
 246 40 306 91 343 187 c 0
 396 324 384 490 355 639 c 0
 347 678 307 714 262 724 c 2
 238 729 l 1
 244 754 l 1
 249 778 l 1
 274 772 l 2
 333 758 393 714 405 649 c 0
 434 496 448 320 389 169 c 0
 356 83 286 -30 208 1 c 0
 184 10 168 33 157 62 c 0
 107 190 159 271 157 394 c 1
 146 380 131 361 116 349 c 0
 110 344 100 316 66 308 c 2
 42 302 l 1
 36 326 l 1
EndSplineSet
EndChar

StartChar: uni1E91
Encoding: 7825 7825 47
Width: 541
VWidth: 0
Flags: HW
LayerCount: 2
Fore
SplineSet
53 501 m 1
 76 511 l 1
 86 488 l 2
 123 403 143 340 204 343 c 0
 255 345 227 514 346 515 c 0
 453 516 477 396 502 331 c 2
 511 307 l 1
 488 299 l 1
 464 290 l 1
 455 313 l 2
 424 396 406 466 347 465 c 0
 292 464 329 299 206 293 c 0
 101 288 71 397 40 468 c 1
 41 468 40 469 40 468 c 1
 30 491 l 1
 53 501 l 1
EndSplineSet
EndChar

StartChar: zdotaccent
Encoding: 380 380 48
Width: 541
VWidth: 0
Flags: HW
LayerCount: 2
Fore
SplineSet
377 658 m 5
 355 670 l 5
 344 647 l 5
 122 209 l 5
 110 187 l 5
 133 176 l 5
 155 164 l 5
 166 187 l 5
 388 625 l 5
 400 647 l 5
 377 658 l 5
53 304 m 5
 76 294 l 5
 86 317 l 6
 123 402 143 465 204 462 c 4
 255 460 250 305 346 290 c 4
 451 273 477 409 502 474 c 6
 511 497 l 5
 488 506 l 5
 464 515 l 5
 455 492 l 6
 424 409 406 339 347 340 c 4
 292 341 329 506 206 512 c 4
 101 517 71 408 40 337 c 5
 41 337 40 336 40 337 c 5
 30 314 l 5
 53 304 l 5
EndSplineSet
EndChar

StartChar: y
Encoding: 121 121 49
Width: 321
VWidth: 0
Flags: HW
HStem: -180 166
VStem: 87.9462 148
LayerCount: 2
Fore
SplineSet
79.9326171875 400.857421875 m 0
 81.470703125 358.560546875 115.155273438 325 155.947265625 325 c 0
 203.586914062 325 242.342773438 359.087890625 240.965820312 399.018554688 c 0
 238.420898438 456.711914062 198.641601562 502 146.947265625 502 c 0
 106.692382812 502 78.109375 457.356445312 79.9326171875 400.857421875 c 0
29.9619140625 399.142578125 m 0
 27.7841796875 466.643554688 63.201171875 552 146.947265625 552 c 0
 231.251953125 552 287.473632812 479.288085938 290.927734375 400.981445312 c 0
 293.55078125 324.912109375 224.306640625 275 155.947265625 275 c 0
 86.7392578125 275 32.423828125 331.42578125 29.9619140625 399.142578125 c 0
EndSplineSet
EndChar

StartChar: i
Encoding: 105 105 50
Width: 297
VWidth: 0
Flags: HW
LayerCount: 2
Fore
SplineSet
85.8984375 462.889648438 m 1
 82.3291015625 448.22265625 79.9794921875 430.831054688 80.5 413.829101562 c 0
 80.677734375 408.861328125 81.4453125 403.572265625 82.7275390625 398.494140625 c 0
 92.3935546875 360.23046875 127.94140625 334.487304688 158.306640625 342.216796875 c 0
 202.329101562 353.578125 220.360351562 398.725585938 216.551757812 460.623046875 c 0
 215.6796875 478.490234375 194.278320312 489.84375 150.505859375 495.181640625 c 0
 138.075195312 496.688476562 132.939453125 490.862304688 110.90234375 474.766601562 c 0
 104.298828125 469.942382812 96.4951171875 464.736328125 87.0859375 460.345703125 c 1
 85.8984375 462.889648438 l 1
125.481445312 542.116210938 m 1
 134.793945312 545.002929688 145.483398438 546.15625 156.522460938 544.818359375 c 0
 194.749023438 540.15625 263.34765625 527.509765625 266.4765625 463.376953125 c 0
 270.666992188 395.27734375 250.665039062 314.413085938 170.760742188 293.79296875 c 0
 104.732421875 276.985351562 48.591796875 329.478515625 34.2509765625 386.248046875 c 0
 32.1240234375 394.666015625 30.84765625 403.2109375 30.52734375 412.170898438 c 0
 29.1533203125 457.065429688 40.57421875 492.728515625 56.5244140625 523.74609375 c 0
 79.580078125 568.58203125 151.663085938 677.213867188 172.451171875 726.448242188 c 5
 195.482421875 716.724609375 l 5
 218.513671875 707 l 5
 203.08203125 670.451171875 141.977539062 567.885742188 125.481445312 542.116210938 c 1
EndSplineSet
EndChar

StartChar: u
Encoding: 117 117 51
Width: 297
VWidth: 0
Flags: HW
LayerCount: 2
Fore
SplineSet
211.516601562 382.166992188 m 5
 215.0859375 396.833984375 217.435546875 414.225585938 216.915039062 431.227539062 c 4
 216.737304688 436.1953125 215.969726562 441.484375 214.6875 446.5625 c 4
 205.021484375 484.826171875 169.473632812 510.569335938 139.108398438 502.83984375 c 4
 95.0859375 491.478515625 77.0546875 446.331054688 80.86328125 384.43359375 c 4
 81.7353515625 366.56640625 103.13671875 355.212890625 146.909179688 349.875 c 4
 159.33984375 348.368164062 164.475585938 354.194335938 186.512695312 370.290039062 c 4
 193.116210938 375.114257812 200.919921875 380.3203125 210.329101562 384.7109375 c 5
 211.516601562 382.166992188 l 5
171.93359375 302.940429688 m 5
 162.62109375 300.053710938 151.931640625 298.900390625 140.892578125 300.23828125 c 4
 102.666015625 304.900390625 34.0673828125 317.546875 30.9384765625 381.6796875 c 4
 26.748046875 449.779296875 46.75 530.643554688 126.654296875 551.263671875 c 4
 192.682617188 568.071289062 248.823242188 515.578125 263.1640625 458.80859375 c 4
 265.291015625 450.390625 266.567382812 441.845703125 266.887695312 432.885742188 c 4
 268.26171875 387.991210938 256.840820312 352.328125 240.890625 321.310546875 c 4
 217.834960938 276.474609375 145.751953125 167.842773438 124.963867188 118.608398438 c 5
 101.932617188 128.33203125 l 5
 78.9013671875 138.056640625 l 5
 94.3330078125 174.60546875 155.4375 277.170898438 171.93359375 302.940429688 c 5
EndSplineSet
EndChar

StartChar: e
Encoding: 101 101 52
Width: 297
VWidth: 0
Flags: HW
LayerCount: 2
Fore
SplineSet
211.516601562 462.889648438 m 1
 215.0859375 448.22265625 217.435546875 430.831054688 216.915039062 413.829101562 c 0
 216.737304688 408.861328125 215.969726562 403.572265625 214.6875 398.494140625 c 0
 205.021484375 360.23046875 169.473632812 334.487304688 139.108398438 342.216796875 c 0
 95.0859375 353.578125 77.0546875 398.725585938 80.86328125 460.623046875 c 0
 81.7353515625 478.490234375 103.13671875 489.84375 146.909179688 495.181640625 c 0
 159.33984375 496.688476562 164.475585938 490.862304688 186.512695312 474.766601562 c 0
 193.116210938 469.942382812 200.919921875 464.736328125 210.329101562 460.345703125 c 1
 211.516601562 462.889648438 l 1
171.93359375 542.116210938 m 1
 162.62109375 545.002929688 151.931640625 546.15625 140.892578125 544.818359375 c 0
 102.666015625 540.15625 34.0673828125 527.509765625 30.9384765625 463.376953125 c 0
 26.748046875 395.27734375 46.75 314.413085938 126.654296875 293.79296875 c 0
 192.682617188 276.985351562 248.823242188 329.478515625 263.1640625 386.248046875 c 0
 265.291015625 394.666015625 266.567382812 403.2109375 266.887695312 412.170898438 c 0
 268.26171875 457.065429688 256.840820312 492.728515625 240.890625 523.74609375 c 0
 217.834960938 568.58203125 145.751953125 677.213867188 124.963867188 726.448242188 c 5
 101.932617188 716.724609375 l 5
 78.9013671875 707 l 5
 94.3330078125 670.451171875 155.4375 567.885742188 171.93359375 542.116210938 c 1
EndSplineSet
EndChar

StartChar: hyphen
Encoding: 45 45 53
Width: 462
VWidth: 0
Flags: HW
LayerCount: 2
Fore
SplineSet
57 517 m 1
 64 541 l 1
 88 534 l 1
 266 482 l 1
 302 471 l 1
 278 442 l 1
 238 393 l 1
 387 365 l 1
 412 360 l 1
 407 335 l 1
 403 311 l 1
 378 315 l 1
 188 351 l 1
 147 359 l 1
 173 392 l 1
 216 445 l 1
 74 486 l 1
 74 487 73 486 74 486 c 1
 50 493 l 1
 57 517 l 1
EndSplineSet
EndChar

StartChar: bracketleft
Encoding: 91 91 54
Width: 400
VWidth: 0
Flags: HW
LayerCount: 2
Fore
SplineSet
316 779 m 1
 338 768 l 1
 327 745 l 2
 265 614 252 507 182 393 c 0
 181 392 183 393 182 392 c 0
 240 278 266 177 329 43 c 2
 340 20 l 1
 317 9 l 1
 295 -1 l 1
 284 21 l 2
 224 149 196 246 149 345 c 1
 140 333 130 321 119 309 c 0
 102 290 73 292 59 311 c 0
 30 351 12 504 55 535 c 0
 77 551 98 530 103 522 c 0
 122 495 139 469 154 444 c 1
 206 539 221 639 282 767 c 2
 293 789 l 1
 316 779 l 1
124 395 m 1
 112 417 98 439 83 463 c 1
 82 429 85 383 93 356 c 1
 103 368 115 382 124 395 c 1
EndSplineSet
EndChar

StartChar: bracketright
Encoding: 93 93 55
Width: 399
VWidth: 0
Flags: HW
LayerCount: 2
Fore
SplineSet
84 779 m 1
 62 768 l 1
 72 745 l 2
 134 614 147 507 217 393 c 0
 218 392 217 393 218 392 c 0
 160 278 133 177 70 43 c 2
 60 20 l 1
 82 9 l 1
 105 -1 l 1
 115 21 l 2
 175 149 203 246 250 345 c 1
 259 333 269 321 280 309 c 0
 297 290 327 292 341 311 c 0
 370 351 387 504 344 535 c 0
 322 551 301 530 296 522 c 0
 277 495 261 469 246 444 c 1
 194 539 178 639 117 767 c 2
 107 789 l 1
 84 779 l 1
276 395 m 1
 288 417 301 439 316 463 c 1
 317 429 314 383 306 356 c 1
 296 368 285 382 276 395 c 1
EndSplineSet
EndChar

StartChar: exclamdown
Encoding: 161 161 56
Width: 522
VWidth: 0
Flags: HW
LayerCount: 2
Fore
SplineSet
371 489 m 1
 396 489 l 1
 396 464 l 1
 396 24 l 1
 396 -1 l 1
 371 -1 l 1
 346 -1 l 1
 346 24 l 1
 346 464 l 1
 346 489 l 1
 371 489 l 1
30 384 m 1
 30 409 l 1
 55 409 l 1
 467 409 l 1
 492 409 l 1
 492 384 l 1
 492 359 l 1
 467 359 l 1
 55 359 l 1
 30 359 l 1
 30 384 l 1
EndSplineSet
Ligature2: "'liga' Standard Ligatures in Latin lookup 0-1" f h
EndChar

StartChar: cent
Encoding: 162 162 58
Width: 431
VWidth: 0
Flags: HW
LayerCount: 2
Fore
SplineSet
228 290 m 1
 250 302 l 1
 262 279 l 1
 390 29 l 1
 401 7 l 1
 379 -4 l 1
 356 -16 l 1
 345 7 l 1
 217 257 l 1
 206 279 l 1
 228 290 l 1
52 472 m 1
 30 484 l 1
 41 506 l 1
 183 776 l 1
 204 816 l 1
 227 777 l 1
 381 513 l 1
 388 500 l 1
 381 488 l 1
 109 16 l 1
 97 -6 l 1
 75 6 l 1
 53 19 l 1
 66 40 l 1
 330 500 l 1
 206 712 l 1
 85 482 l 1
 86 482 85 481 85 482 c 1
 74 460 l 1
 52 472 l 1
EndSplineSet
Ligature2: "'liga' Standard Ligatures in Latin lookup 0-1" f scaron
EndChar

StartChar: sterling
Encoding: 163 163 59
Width: 491
VWidth: 0
Flags: HW
LayerCount: 2
Fore
SplineSet
255 245 m 1
 332 202 382 129 445 52 c 2
 461 33 l 1
 442 17 l 1
 422 1 l 1
 407 20 l 2
 350 90 306 150 254 187 c 1
 252 158 249 129 245 97 c 0
 240 63 215 37 189 22 c 0
 151 0 86 -12 56 39 c 0
 36 72 28 116 30 156 c 0
 33 212 60 283 131 279 c 0
 158 278 182 273 205 266 c 1
 202 424 164 555 151 752 c 1
 150 752 151 753 151 752 c 1
 149 777 l 1
 174 779 l 1
 199 781 l 1
 201 756 l 1
 201 757 202 756 201 756 c 1
 214 557 256 422 255 245 c 1
205 214 m 1
 183 223 158 228 129 229 c 0
 103 230 82 205 80 154 c 0
 79 122 86 88 99 65 c 0
 106 53 133 47 164 65 c 0
 182 76 193 91 195 103 c 0
 200 142 204 179 205 214 c 1
EndSplineSet
Ligature2: "'liga' Standard Ligatures in Latin lookup 0-1" v hbar
EndChar

StartChar: currency
Encoding: 164 164 60
Width: 550
VWidth: 0
Flags: HW
LayerCount: 2
Fore
SplineSet
354 365 m 1
 409 302 408 234 385 153 c 0
 378 128 368 105 354 83 c 0
 309 12 223 -44 140 9 c 0
 136 11 133 13 129 16 c 0
 8 102 2 273 87 391 c 0
 150 479 251 431 319 419 c 0
 358 412 391 413 421 433 c 0
 494 481 445 512 466 632 c 2
 471 657 l 1
 495 653 l 1
 520 648 l 1
 516 624 l 2
 501 540 550 457 449 391 c 0
 418 371 385 365 354 365 c 1
269 378 m 1
 200 394 158 404 127 361 c 0
 54 260 65 124 158 57 c 0
 161 55 163 53 166 51 c 0
 214 20 273 48 312 110 c 0
 323 128 332 147 337 167 c 0
 362 257 359 302 287 361 c 2
 268 377 l 1
 269 378 l 1
EndSplineSet
Ligature2: "'liga' Standard Ligatures in Latin lookup 0-1" thorn h
EndChar

StartChar: yen
Encoding: 165 165 61
Width: 527
VWidth: 0
Flags: HW
LayerCount: 2
Fore
SplineSet
225 243 m 5
 194 215 160 182 115 158 c 6
 93 146 l 5
 81 168 l 5
 69 190 l 5
 91 202 l 6
 140 228 178 271 221 306 c 4
 224 309 228 311 231 314 c 4
 231 317 232 320 232 323 c 4
 249 457 283 573 232 716 c 4
 231 718 231 717 230 719 c 5
 199 699 130 577 85 517 c 5
 85 518 84 516 85 517 c 5
 70 497 l 5
 50 512 l 5
 30 527 l 5
 45 547 l 5
 44 546 44 547 45 547 c 5
 87 602 153 745 216 768 c 4
 224 771 233 772 243 770 c 4
 262 765 273 748 279 732 c 4
 332 586 303 464 286 346 c 5
 315 357 348 361 385 352 c 4
 490 326 511 207 489 118 c 4
 486 107 483 96 479 85 c 4
 452 18 355 -21 293 5 c 4
 273 13 257 29 250 52 c 4
 229 120 223 184 225 243 c 5
279 286 m 4
 279 282 277 279 277 275 c 4
 271 209 274 142 297 68 c 4
 300 60 304 55 312 52 c 4
 345 38 417 66 432 103 c 4
 435 111 439 121 441 130 c 4
 461 210 436 289 373 304 c 4
 336 313 311 305 284 289 c 4
 282 288 281 287 279 286 c 4
EndSplineSet
Ligature2: "'liga' Standard Ligatures in Latin lookup 0-1" eth hbar
EndChar

StartChar: brokenbar
Encoding: 166 166 62
Width: 536
VWidth: 0
Flags: HW
LayerCount: 2
Fore
SplineSet
54 182 m 1
 30 189 l 1
 37 213 l 2
 51 263 7 400 109 424 c 0
 298 467 317 242 423 322 c 0
 501 381 419 475 344 610 c 2
 332 632 l 1
 354 644 l 1
 376 656 l 1
 388 634 l 2
 449 525 579 377 453 282 c 0
 319 180 220 399 121 376 c 0
 69 364 113 301 85 199 c 1
 84 199 85 198 85 199 c 1
 78 175 l 1
 54 182 l 1
53 757 m 1
 68 777 l 1
 88 762 l 2
 221 659 294 553 299 373 c 0
 303 208 237 80 81 -4 c 2
 59 -16 l 1
 47 6 l 1
 35 28 l 1
 57 40 l 2
 197 116 253 222 249 371 c 0
 245 535 185 625 58 722 c 2
 38 737 l 1
 53 757 l 1
EndSplineSet
Ligature2: "'liga' Standard Ligatures in Latin lookup 0-1" v zcaron
EndChar

StartChar: section
Encoding: 167 167 63
Width: 268
VWidth: 0
Flags: HW
LayerCount: 2
Fore
SplineSet
207 124 m 1
 220.30428863 102.83408627 l 1
 190.299951405 83.9742171568 171.808105931 58.341665507 123.916820102 43.9742797583 c 0
 84.5197055012 33.1061102133 58.8043008834 49.0948808589 38.5124070245 51.1240702448 c 1
 41 76 l 1
 43.4875929755 100.875929755 l 1
 83.043855385 96.9203035143 90.4287862884 86.910022183 110.081547885 92.0235516782 c 0
 142.180589805 101.917166309 153.619417947 119.975100722 193.69571137 145.16591373 c 1
 207 124 l 1
169 329 m 1
 189 314 l 1
 180 301 175 282 151 263 c 0
 139 253 126 246 116 240 c 1
 143 234 174 224 196 191 c 0
 234 135 241 84 248 22 c 1
 223 19 l 1
 198 16 l 1
 191 78 187 117 155 163 c 0
 132 197 99 182 35 210 c 0
 31 212 27 215 24 219 c 0
 16 231 20 248 33 255 c 0
 71 276 92 281 120 303 c 0
 132 312 132 321 149 344 c 1
 169 329 l 1
EndSplineSet
Ligature2: "'liga' Standard Ligatures in Latin lookup 0-1" nine uni2077
EndChar

StartChar: dieresis
Encoding: 168 168 64
Width: 268
VWidth: 0
Flags: HW
LayerCount: 2
Fore
SplineSet
70 138 m 1
 54.7892114086 118.159840968 l 1
 80.1171756562 98.7417350445 95.7583848275 73.5708220333 137.641310537 56.8176517493 c 0
 172.81489986 42.4876709144 199.25926939 51.52722141 221.337024737 50.0553710536 c 1
 223 75 l 1
 224.662975263 99.9446289464 l 5
 186.74073061 102.47277859 175.18510014 95.5123290856 156.358689463 103.182348251 c 0
 128.241615172 114.429177967 119.882824344 131.258264955 85.2107885914 157.840159032 c 1
 70 138 l 1
99 329 m 1
 79 314 l 1
 88 301 94 282 118 263 c 0
 130 253 143 246 153 240 c 1
 126 234 94 224 72 191 c 0
 34 135 27 84 20 22 c 1
 45 19 l 1
 70 16 l 1
 77 78 82 117 114 163 c 0
 137 197 169 182 233 210 c 0
 237 212 241 215 244 219 c 0
 252 231 248 248 235 255 c 0
 197 276 176 281 148 303 c 0
 136 312 136 321 119 344 c 1
 99 329 l 1
EndSplineSet
Ligature2: "'liga' Standard Ligatures in Latin lookup 0-1" nine uni2078
EndChar

StartChar: nine
Encoding: 57 57 65
Width: 999
VWidth: 0
Flags: HW
LayerCount: 2
Fore
SplineSet
259 955 m 29
 640 831 l 29
 415 659 l 29
 259 955 l 29
242 482 m 25
 623 358 l 25
 398 186 l 25
 242 482 l 25
EndSplineSet
EndChar

StartChar: uni2077
Encoding: 8311 8311 66
Width: 999
VWidth: 0
Flags: HW
LayerCount: 2
Fore
SplineSet
259 955 m 29
 640 831 l 29
 415 659 l 29
 259 955 l 29
242 482 m 25
 623 358 l 25
 398 186 l 25
 242 482 l 25
EndSplineSet
EndChar

StartChar: uni2078
Encoding: 8312 8312 67
Width: 999
VWidth: 0
Flags: HW
LayerCount: 2
Fore
SplineSet
259 955 m 29
 640 831 l 29
 415 659 l 29
 259 955 l 29
242 482 m 25
 623 358 l 25
 398 186 l 25
 242 482 l 25
EndSplineSet
EndChar
